<?xml version="1.0" encoding="UTF-8"?>
<svg id="LOGO" xmlns="http://www.w3.org/2000/svg" viewBox="0 0 100 100">
  <defs>
    <style>
      .cls-1 {
        fill: #fc98ff;
      }

      .cls-1, .cls-2 {
        fill-rule: evenodd;
      }

      .cls-2 {
        fill: #b389ff;
      }
    </style>
  </defs>
  <polygon class="cls-2" points="64.31 18.77 77.25 24.14 82.59 37.09 85.35 43.29 93.58 43.29 89.79 34.11 83.21 18.19 67.3 11.58 54.57 6.19 51.38 13.4 46.82 23.72 41.41 25.95 31.45 30.07 27.32 40.02 24.8 45.8 32.11 49.06 34.51 43.01 37.4 36.03 44.38 33.15 47.55 31.84 49.26 28.06 49.3 28.07 55.11 14.95 64.31 18.77 64.31 18.77"/>
  <polygon class="cls-1" points="20.12 37.04 25.49 24.1 38.43 18.75 46.91 14.98 51.39 4.98 35.46 11.56 19.54 18.14 12.93 34.05 7.54 46.78 14.75 49.97 25.07 54.53 27.3 59.94 31.42 69.9 41.37 74.03 47.15 76.55 50.4 69.24 44.36 66.84 37.38 63.94 34.5 56.96 33.19 53.79 29.4 52.08 29.42 52.05 16.3 46.24 20.12 37.04 20.12 37.04"/>
  <polygon class="cls-2" points="38.38 81.23 25.45 75.86 20.1 62.91 16.33 54.44 6.32 49.96 12.9 65.89 19.49 81.81 35.4 88.42 48.13 93.81 51.32 86.6 55.88 76.28 61.29 74.05 71.25 69.93 75.38 59.98 76.8 56.71 68.3 56.71 68.19 56.99 65.29 63.97 58.31 66.85 55.14 68.16 53.43 71.94 53.4 71.93 47.59 85.05 38.38 81.23 38.38 81.23"/>
  <path class="cls-1" d="M82.58,62.96l-5.37,12.93-12.94,5.35-8.48,3.77-4.47,10.01,15.93-6.58,15.92-6.58,6.61-15.91,3.91-9.24h-8.51l-2.59,6.25h0ZM76.73,43.29l-1.33-3.23-4.12-9.96-9.96-4.13-5.78-2.52-3.25,7.32,6.05,2.39,6.98,2.9,2.88,6.98.1.25h8.43Z"/>
</svg>